<svg xmlns="http://www.w3.org/2000/svg" viewBox="0 0 64 64">
  <defs>
    <linearGradient id="bg" x1="8" y1="8" x2="56" y2="56" gradientUnits="userSpaceOnUse">
      <stop offset="0" stop-color="#ff3d8b"/>
      <stop offset="0.55" stop-color="#ffb000"/>
      <stop offset="1" stop-color="#14b8a6"/>
    </linearGradient>
  </defs>
  <rect width="64" height="64" rx="14" fill="url(#bg)"/>
  <path d="M21 24h24v19c0 6-5 11-11 11h-2c-6 0-11-5-11-11V24Z" fill="#fff"/>
  <path d="M45 30h4c5 0 8 3 8 8s-3 8-8 8h-4v-6h4c2 0 3-1 3-2s-1-2-3-2h-4v-6Z" fill="#fff"/>
  <path d="M25 15c-2 3 2 4 0 7M33 13c-2 3 2 5 0 8M41 15c-2 3 2 4 0 7" fill="none" stroke="#fff" stroke-width="3" stroke-linecap="round"/>
  <path d="M21 29h24" fill="none" stroke="#0f766e" stroke-width="3" stroke-linecap="round" opacity="0.9"/>
  <circle cx="26" cy="39" r="3" fill="#ff3d8b"/>
  <circle cx="34" cy="39" r="3" fill="#ffb000"/>
  <circle cx="42" cy="39" r="3" fill="#14b8a6"/>
</svg>
